WARNING: Could not open file 'C:\Users\petuline\Desktop\5a85e071c760060d345454afca5bf75f.jpg' for embedding. The raster image will be kept as a reference but might be invalid. (Exception details: <urlopen error unknown url type: c>)
<svg width="254mm" height="225.95mm" inkscape:version="0.92.3 (2405546, 2018-03-11)" sodipodi:docname="mapa2.svg" version="1.1" viewBox="0 0 254 225.95" xmlns="http://www.w3.org/2000/svg" xmlns:cc="http://creativecommons.org/ns#" xmlns:dc="http://purl.org/dc/elements/1.1/" xmlns:inkscape="http://www.inkscape.org/namespaces/inkscape" xmlns:rdf="http://www.w3.org/1999/02/22-rdf-syntax-ns#" xmlns:sodipodi="http://sodipodi.sourceforge.net/DTD/sodipodi-0.dtd" xmlns:xlink="http://www.w3.org/1999/xlink">
 <sodipodi:namedview id="base" bordercolor="#666666" borderopacity="1.0" inkscape:current-layer="layer1" inkscape:cx="361.2383" inkscape:cy="398.66451" inkscape:document-units="mm" inkscape:pageopacity="0.0" inkscape:pageshadow="2" inkscape:window-height="1057" inkscape:window-maximized="1" inkscape:window-width="1920" inkscape:window-x="-8" inkscape:window-y="-8" inkscape:zoom="1.4142136" pagecolor="#ffffff" showgrid="false"/>
 <metadata>
  <rdf:RDF>
   <cc:Work rdf:about="">
    <dc:format>image/svg+xml</dc:format>
    <dc:type rdf:resource="http://purl.org/dc/dcmitype/StillImage"/>
    <dc:title/>
   </cc:Work>
  </rdf:RDF>
 </metadata>
 <g transform="translate(-68.792 -136.4)" inkscape:groupmode="layer" inkscape:label="Vrstva 1">
  <image x="68.792" y="136.4" width="254" height="225.95" preserveAspectRatio="none" sodipodi:absref="C:\Users\petuline\Desktop\5a85e071c760060d345454afca5bf75f.jpg" xlink:href="C:\Users\petuline\Desktop\5a85e071c760060d345454afca5bf75f.jpg"/>
  <path d="m128.23 336.98-0.85045-2.5986 0.37798-7.7485-1.5119-0.61421 0.0945-1.3702 1.0394-0.37797 0.61421-5.2917 0.37798-4.7247 0.47247-0.85045-0.33073-6.0004 0.0945-4.9137 0.18898-4.4648-3.6144-2.9057-2.9529-3.3073-1.3702-2.5986-0.23623-2.7876-0.8032-0.56697 0.33073-1.6064 0.14174-0.85045 1.4174-1.8426 1.0867-0.8977 0.23624-1.2757-0.0473-1.3229-1.3347-0.48429-2.008 0.88589-0.81501 0.0827-1.1812-0.72054-2.9165-2.2542-1.4867-1.1526-1.2027-0.45102-1.0357-0.46772-1.3432-1.4623-1.5119-0.0236-1.6773-0.0473-1.8663-0.66143-1.7954-0.63783-1.4174-0.4016-0.99219-0.77958-1.1339-0.61421-1.7245-2.5513-0.09449-1.0867-1.9844-2.8348-0.30711-0.96857-1.5119-1.63-1.5355-1.5355-0.94494-1.4646-0.87407 0.56696 0.54334 1.3229 0.68508 0.33073 0.85045 1.6064 0.94494 1.0158 0.8032 1.63 1.0867 1.2993v1.1339l-1.6536-0.92132-1.0394-2.3624-1.4647-0.75595-0.3071-1.8899-1.9844-2.5041-0.21261-1.441-0.99219-0.7087-1.2757-1.3702-2.2136-4.0234-0.30068-5.9802v-5.5792l0.90203-1.3364-0.7684-1.2695-1.7373-0.26727-1.5045-3.9155-1.3702-0.47247-0.37798-1.4174-0.89769-0.56697-1.3229 1.3702-0.09449-1.8899 0.61421-0.56696-0.75595-0.99219-1.3702-1.7954-1.6064-0.0945-1.6064-0.14174-1.2757-0.42522-0.09449-1.1812-1.6064-0.18899 0.09449-20.552 1.5119 0.51972 1.4647 0.23623 1.2757 0.66146 1.8899-1.1812 1.1812-0.66146 1.0394 0.42523 2.4568-0.0473 3.5908-1.4174 0.04725 1.6536 2.1734 0.28348 1.4647 0.61421 2.3624 0.14174 0.89769 0.0472-0.46376 1.7879 0.33409 0.90204 0.90204-0.0668 1.9711-0.50115 1.2027 0.4009 0.33409 0.90204 1.0357 0.53454 0.06682-2.1382-0.13364-1.1025 0.90204-0.80181 1.3029 0.60136 0.66817 1.0357 0.93544 0.53454 1.9711-0.20045 1.3364 0.0334 1.1025-0.20045 0.46772-1.1025 0.63477 0.33408 0.23386 1.3029 0.26727 0.70159 0.70158-0.13364 0.10023-1.2027 0.73499-2.4054 0.56795-1.0691-2.4822-0.46142-0.0473-2.3151 0.89775-1.6064 1.2757 2.2679 1.2757 0.99218 0.23623 1.4647 0.42523 1.4647 0.47247 1.1339 1.1339-0.66146 0.61422 0.8032 0.14174 0.89769 1.4174 0.18899 1.6064 1.7009 0.47247 1.5119-0.99219-0.23624-0.8032-1.5119-0.99219-0.42522-1.0394 0.51971 0.89769 1.1812 0.56697 1.0394v0.8032l-2.9293-1.3229 0.0472 1.0394 1.2757 0.66146 1.4174 0.51972 0.61421 0.89769-0.18899 2.2206-1.2757-0.75595-1.0394-0.23624v1.0394l-0.14174 1.4174-1.1812 0.7087-0.75595 0.51972-0.0945 0.89769-0.66146-0.0945v1.3229l-0.33072 1.2757-0.33073 0.33073 0.89769 1.6064 0.75595 1.2284 1.0394 1.3229 1.7481 0.75596 1.6536 1.7009 1.7009 0.56696 1.7481 0.0472 0.94494-0.14169-0.51972 1.5119-0.05 1.5739-0.56799 0.80181 0.10023 0.80181 0.66817 0.43431 0.86863 0.13364-0.16705 1.5368 1.8375 0.26727 0.33409-2.0045-0.20045-1.7373-0.63477-1.6704 0.7684-1.1359 1.0691-0.50113 0.63476-0.13363 0.0334-0.70158-0.70157-0.30068v-1.6036l-0.63477-1.5034 1.1025-2.1716-0.50113-1.5034-0.7684-0.93544 0.40091-0.73499 0.36749-1.0357 1.4366 0.20045 0.93545-0.70158 1.0023 0.30068 0.7684 0.63476 0.96885 0.7684 0.73499 1.4366-0.13363 1.0023-0.33409 0.80181 0.93843 1.7744 0.89769-0.51972 0.96856 0.54334h0.73233l0.68508-0.23624-0.14623-1.495-0.0668-1.1693 0.26725-0.66817 0.83522 0.13363 0.16704 1.8709 0.13364 1.7372 1.1693 0.16704 0.50113 1.2027-0.53454 1.0357 0.90204 1.47 1.2027 0.33408 1.4032-0.46772 0.60135 0.80181-1.5368 1.0357-1.5368 0.93544 0.13364 0.96886 2.2718-1.5368 1.1693 0.90203 0.63477 0.80181 0.10022 0.90203-0.10022 1.2027-1.9043 0.4009-0.73499 1.2027-1.7372 0.73499-1.2027-0.0668-2.0045-0.0668-1.2027 0.73496-0.73499 1.1359-1.6704 0.80181-0.53454 0.46772-0.0668 1.0691 3.7418-2.3386h1.5368l-0.33408 1.4032-0.20046 1.2695 1.5368 0.80181 1.47 0.33409-0.86863 1.1359-1.9377 1.2695-0.86863-0.53454 1.2027-1.4032-1.1359-0.40091-2.0713 1.6036-1.6036 1.0691 0.40091 0.86863-2.94 1.4032-0.73499 2.8063-1.6704 0.20045 0.53453 3.0068v2.0045l-3.1404 2.0713-0.66818 1.4032 0.33409 2.5391v2.7395l-1.0691-1.6036-0.80181-1.9377-1.2027-1.0691-1.0023-0.53453-0.80181 0.86862-0.33409 1.2027-2.6727-0.86862-2.0713-0.66818-1.4032 1.0691-2.205 0.60136 1.1359 1.9377-0.26727 1.2695-0.46772 1.6036 0.53454 1.8709 1.0691 1.47 1.1359 0.80181 1.2695 0.26727 1.8709-0.53454 0.60135-1.3364 1.8709-0.66817 0.80181-0.66818-1.0691 3.0068-0.53454 1.6036 0.46772 1.1359 1.9377 0.33409 0.93544 0.26726 0.73499 3.3409 1.6036 0.86863 2.0713-0.53454 2.205 0.73499 1.9377-0.86862 1.5368-2.5391 4.9445 1.0691 2.205 0.0668 2.205 1.47 1.5368 1.0023 2.1382 1.2027 3.0068 0.73499 0.93544 1.2695 0.63476 1.3364 2.372 0.7684 1.1025 0.16704 1.1025 0.90203 0.73499 0.40091 1.637 0.50113 1.6704 0.56795 1.0357 0.73499 1.1025 0.56795 0.63477 0.53453 0.13363 1.9043-0.7684 1.0691-0.7684 0.83522-0.66817 0.4009-0.33409 1.8375 0.26727 1.1359-0.13363 1.9711-0.53454 1.8709-1.3364 1.637-1.5702 1.1693h-1.4366l-0.66818-0.53454-0.46772 1.4366-0.86862 0.86862-0.50113 0.66818-0.56795 0.36749-0.0334 2.1048 0.13362 1.5368-1.0023 1.6036-0.70158 1.0691-0.70158-0.20046-0.30068 0.86863-0.90203 0.80181-0.43432 0.7684-0.53454 1.7372-0.46772 1.3364-1.637 1.0357-1.1693 0.4009-0.4009 0.96885-1.3221 3.226-1.9371 3.0711-1.2757 0.85044-0.75595 3.26-0.42522 3.7325-1.1339 2.8821-1.4647 1.5592-0.8032 0.61421" style="fill:#e6aa00;stroke-width:.26458px;stroke:#000" inkscape:connector-curvature="0"/>
  <path d="m269.4 308.4-0.28349-1.7009 0.73233-0.87407-0.8032-2.2678-1.0867-2.008 0.23624-2.3387 0.21261-1.0158-0.4016-1.4174 0.4016-0.33073 0.85045 0.14174 0.82682-0.82682 0.7087-0.33073h1.1339l3.0599-2.2306-0.33408-1.47 1.7372-0.86862 0.53454-1.47 1.2695-0.53454-12.027-4.009-2.6727-1.0023 0.26726-0.60135 2.5391 0.20045 1.6036-0.0668 0.80181 1.0022-1.7372 0.13364-0.93544 0.20045 12.361 4.1427 0.86863 0.46772 0.46772 0.86862 0.33409 0.46773 0.53453-2.3386-15.168-6.4813-0.86863-4.009 2.4722-1.2695 3.0736-3.7418 1.6036 0.93545-0.73499 2.0713 1.0691 1.3363-0.53454 1.6036-1.2695 2.7395-1.5368 0.66818-1.2695-1.0691-1.7372 0.73499 14.967 6.6149 1.3364-0.60135-6.949-2.94-1.47-1.0691-0.66817-4.6104 1.1359-1.8041 2.7395 2.1382-0.93544 1.9377-1.47 1.6036 0.53454 1.8041 7.1495 2.94 0.33408-0.40091 1.5368 0.46772 1.2027 0.20046-3.4745-8.3522 1.2695-0.80181 2.0713 2.0713 2.4722-1.1359 7.8176 4.6104 0.86862 1.6036-3.8086-0.93544h-4.4768l-0.66817-2.7395-5.4122-2.6727 3.4745 8.4858 0.86863 0.60136-0.86863 0.53454-0.0733 1.598 1.2048 0.99218 1.4646 0.23624 1.1812-0.63784 0.56696-3.0238 1.2757 0.0236 0.73233 2.6931-0.0709 1.8426 2.2206 2.6458 0.96857 1.1812 0.73232 1.4647 0.63784 0.47247 0.49609 1.8663 0.8977 1.5592 0.23623 1.2757-0.56696 1.9371 11.859 2.7403 3.827 3.4963 1.7954 0.0945-0.23624 1.5119-0.61421 1.4647-1.6536-0.51972 0.18899-1.8899-2.3151-2.3624-0.8032-1.7009-12.048-2.7403-1.1339 2.2206-0.75595 1.4647 14.458 6.6146 2.2678-0.33073 0.94494 1.2284-0.0945 2.0789-1.7009 0.94495v2.4568h-1.7009l-2.2678-1.1339 1.7954-2.2679 1.0394-1.6064-0.2163-1.3644-14.6-6.5481-0.48443 0.51784 0.18375 0.63476-1.2073 1.0194-1.0867 0.82683-1.3229-0.99219-0.44884 0.11812-0.42523 1.2284-1.1812-0.0236-1.0631-0.21264-1.3229-3.5199-0.73233-0.73233-1.2757-0.0236-0.96856 0.21259-1.5119-2.7167-1.2993-0.0945-1.6064 0.14175-1.5119 0.4961-1.3229 0.63783-0.87407 0.77958-0.47247 0.87407-1.1576 0.49609-0.89769-0.92132-0.56697-0.0709-1.9135 1.0158-1.0631 0.54334z" style="fill:#e6aa00;stroke-width:.26458px;stroke:#000" inkscape:connector-curvature="0"/>
  <path d="m208.07 256.11-1.1025-2.0045 1.0023-0.60136 1.637-1.5034 1.4032-3.1404-1.2027-5.8131 3.4077-0.50113 0.50113-1.9377-1.3029-1.637-0.56795-0.56795 0.4009-2.3386 1.0357-1.2695-0.26727-0.53453-1.4032 0.86862 5.439-31.719 3.9451-2.2679 1.3702-0.49609 1.1812 1.5119 2.1261-0.7087 1.6536-3.26 3.428 0.69106 1.1693 1.2695-0.23386-5.4456 1.7038-1.2695 0.20046-2.1047 0.66817-2.3386 0.46772-0.16704 1.4032 1.8375 2.3052 0.23386 4.1761-2.1382 2.7395-1.8375 3.4745-4.2095 2.6059-2.0379 1.47-0.56794 2.7061 1.1359 1.6036 0.16705-1.1359-1.9377 3.9088-4.8443 1.5368-0.13363 0.23386 2.4054-0.0668 1.4032-0.90205 1.3029 0.40091 0.46772 2.94-1.5702 1.47 0.23386 0.66818 0.63477 0.80181 2.1716-1.0357 1.3364-0.46773 1.6036-1.0023 0.93544-2.7061 3.5747 0.0668 0.66817-3.0068 3.675 0.83522 0.0668 1.8709-1.804 1.4366-1.637 1.5702-1.7038 0.93544-1.1025 0.86863-0.4009 1.47 1.1359-0.16704 1.2361 0.56795 1.8709 0.66817 0.10023 0.30068-2.1048 1.3029 0.16704 1.3364 0.90204 1.6704 0.26727 1.1359 0.0668 0.66817 0.10024-0.23386-1.5034 1.0357-0.73499 1.5702 1.3364 0.73499 0.10022 0.43431 1.2695-0.30068 1.1025-1.3029-0.56795 1.2027 1.7372 1.3698 1.7038 1.2361 1.2361 0.83522-1.3364 1.1359 0.63477 1.5368-0.20046 1.6036 0.7684 0.0334-1.637 0.50114-1.0691-0.26727-1.4032 1.5034-1.1359 0.90204-0.10023 2.2718 0.0668 0.66817 0.40092 0.23386 1.637-0.20045 0.33409-0.26727 0.43431 1.1359 0.0334 1.1359-1.2695 0.86863 0.33409-0.0668 0.73499-0.43433 0.86862 1.8709 1.2361 1.1693 0.83522 3.842-1.1025 0.73499 1.1693 0.3675 1.637 0.90203 1.0691 2.1382-0.23386 1.9043 0.70158 1.7372 0.10023 1.1025 1.1025 0.33409-1.1693-0.40091-1.6036 0.63477-0.50113 2.9066 1.3363 2.6393 1.5034 1.6036 1.7038 1.1025 1.2027-0.3675 3.1738-0.73499 1.9043-1.637 1.7038-0.60135 0.83522 1.3363 1.4366-0.43431 0.96885-1.7038 0.13363-0.73499 1.7038-0.86863 1.8041-0.86862 0.93545-1.2361 0.86862-0.96885-0.26727-2.2718 1.0023-0.70158 0.26726-0.13364 0.93545-1.1025 0.46772 0.10022 1.0691-0.33408 2.1048 0.20045 1.1693-0.7684 1.2027-0.96885 0.66818-0.3675 1.6036-1.1693 0.73499-0.93545 1.2361-0.63476 0.36749-0.53454-5.5458 0.96885-3.6081 3.4411-3.0736 0.90203-1.9043-0.30068-0.735-1.4366 1.8375-0.73499 0.10023 0.16704-2.4054-1.1693 0.43432-1.3698 2.3386-1.3698 0.80181 0.43432 0.93545-1.1359 0.66817-2.8397 0.56795-0.86862 0.10022v-1.4366l-1.5702-0.16704-3.0068 0.0668-1.9043 0.96887-1.5702 2.1382-1.5702 0.43432-0.46772 0.83521 1.4032 0.83522 1.5034 0.0334 1.0023 1.3698v1.2695l1.47-1.8041 1.2027 2.0713 0.83522 2.0713-1.0691 2.6393v1.8375l-1.7372 0.53454 0.13364-3.2072 0.10022-2.8063-0.83521 3.9422-0.86863 1.6704-1.7707 1.47 4.0759 0.33408 1.8709 1.3698 0.50113-0.30068-1.637 1.3364-1.47 1.6036-1.7707 0.3675v-1.9377l2.0713-2.1048 0.36749-0.40091-3.9756-0.23386-0.3675 1.9043-0.4009 1.8375-0.63477 0.90203-1.7707-0.23386-1.0691 0.56795-0.60135 0.90203 7.4167-0.33408h0.73499l0.63476 1.7707-0.73499 1.9043-1.4366 2.0379-0.7684 1.637-1.7372 0.7684-0.93545 0.80181-2.5725-0.26727 1.1025-1.6036 1.3364-0.4009 1.1359-1.6704 2.1048-1.3029 0.46772-1.9377 1.2695-1.7372-7.9513 0.33408-1.3029 1.6704-0.70159 0.90203 0.33409 1.5368 0.86863 1.1693 0.36749 1.2361-0.7684 0.7684 1.8041 2.2384 0.23386 1.0023-1.0691 0.56795h-0.73499l-0.60135-1.5368 1.5702-0.13364 0.50113 0.0668-1.637-2.1381-0.90204 0.36749-0.26727 0.66817-0.66817-0.23386 0.3675 2.2384-0.70159 0.83521-1.0023-0.50113 0.26727-1.2027 0.83522 0.20045 0.63477 0.83522 3.7084 2.9734 0.43431 1.2695 0.83522 0.40091 0.90203 0.0334-0.60135-1.2695-1.3029-0.96886v0.46773l3.8754 0.0334 1.2027-1.1359 1.8709 0.26727 0.23386 1.0357-0.96885 1.2361-1.1359 0.43431-1.5034-0.10022 0.16704-1.5034 0.26727-0.33409-4.0759 0.10022-0.30068 0.13364-3.842-3.1738-0.0668-2.3052-0.0668-0.90203 0.1002-1.8375-0.56795-0.43431-0.80181 0.60135-0.10023-1.0691 0.20046-0.86863 0.0668-0.86863-0.93543-0.10022-0.60136 0.83522-0.56794 0.13363-0.10023-1.9711-1.3364 0.10022-1.2027 1.1359-1.2361 0.66817 0.66817 1.0691 1.8709-0.4009 0.60135 0.53454 0.40091 0.8018-1.5368 1.2027-0.60136 0.63476 0.63477 2.4054 0.50113 1.8709v1.9711l-0.96885 2.3052-1.5368 1.2027 0.4009 3.0068-1.3364 0.20045-1.6704-1.0023-2.3386 0.93545-0.66817 1.0023v1.0691l-1.0691-1.47-1.9377 0.13364-0.60135 1.0023 2.5391 1.8709 0.26727 1.5368 0.66817 1.2695-1.2695 1.2027-1.3364 0.93544-1.3363 0.46772-2.8063-3.675-0.86863 0.86862 0.26727 1.8709-0.40091 0.80181 0.735 1.7372 1.3363 0.80181 1.1359 0.46772 0.26727 1.3364-2.2718 0.73499 0.4009 1.4032 1.4032 0.86862 1.1359 2.0045-0.66817 0.66818-3.1404-0.33409-1.2027-2.8063-1.0023-1.3364-0.40091-2.4722-0.33408-1.47-0.26727-2.0713 0.0668-1.8041 0.20047-1.8041v-0.93544l-1.2695 0.66817-0.46773-1.0023 0.0668-2.0045-0.60133-1.4032-0.26727-0.73499-1.47 0.26727-1.0807 0.30707-0.0552-3.1802 0.0669-1.8041-1.6037 3.0736-0.13364 2.3386-0.20045 1.3364-1.2027 0.86863-1.47 1.2695-0.46773 1.2695-1.1359 1.7372-0.66817 1.5368 2.0045 1.2027 0.86862 2.3386-0.20045 1.0023-1.47 0.66817-0.46772-1.47 0.80181-1.8041 0.66817-0.73499-2.205-1.2695-0.53454 1.6704-0.60136 1.8041-1.2027-0.93544-0.86863-1.7372-0.73499-2.205-0.46772-1.0691-2.4054-3.3409 0.17326-1.7274-1.5119-0.23624-1.1339-1.4647 1.3229-0.23623 1.6536-0.33073 0.28348-0.99219-1.2284 0.0473-0.99219 0.70865-1.0867-0.75595-0.66146-0.56696h-2.1261l-1.4647-0.28348-1.1812-0.0945-1.3229-0.0945-1.4647-0.14173-1.1339 0.37797 0.18899 1.2284 2.1261 0.94494-0.0945 1.3702-0.7087 1.7009-1.2757 0.61421-0.8032 0.70871-1.3702 0.75595-1.1812 1.3702-1.9844 1.0394-1.6064 0.23623-1.1812 0.56697-1.2757-0.75595-0.33073-1.1339-0.51972-1.1812-0.28348-0.99219-1.1812-0.61421-0.56696-0.66145-0.47247-0.66146-0.28348-1.1812-0.56697-1.6064-0.99218-1.3229-0.14175-0.8032-0.7087-0.37798-0.14174-1.0394-0.0472-1.1339-0.23628-0.42523-1.1846-0.0756" style="fill:#e6aa00;stroke-width:.26458px;stroke:#000" inkscape:connector-curvature="0"/>
  <path d="m206.35 254.43 1.252 1.9726-0.11812 0.56697-0.0354 0.61421 0.80317 1.1339 1.7718 2.5986 0.58673 1.4799 0.30068 1.8041 0.46772 1.2027 1.0691 0.86863-0.13364 1.1693 0.90204 1.637 1.8709 1.1359 0.50113 0.60136 0.46772 1.0023 1.5702-0.30068 3.274-1.2361 1.3029-0.0668 0.56795 1.0356-0.56795 1.4366-1.6704 1.1693-0.7684 2.2718-1.0691 1.1025-0.66817 0.33408-1.0357 0.86863-0.16705 0.93544-0.8018-0.53454-1.1693 2.3386-0.0334 1.0357-1.303 1.637-0.46772 1.7372 0.60136 1.7372 1.0691 1.0023 0.20045 1.2027 5.8799-1.0023 0.93544 0.13364 0.0668 1.8709 2e-5 1.8709-0.33409 2.1382-0.4009 2.2718-0.60136 1.8041-0.60136 1.3364-1.7372 0.20045-1.0023-1.7372-0.0668-1.8709 0.40089-1.1359 0.13363-1.0023-0.0668-1.2695 1.2695-1.9377 1.0691-0.73499 0.46773-1.0691 0.44004-0.84639-5.835 1.0158-0.15355 1.76-1.1339 1.0867-1.2757 0.99218-0.89769 0.99219-0.94494 0.99219-0.33073 1.0394 0.0472 0.94494-0.80316 2.3151-0.18898 1.0867-0.14174 1.6064-0.56697 1.8426-0.94494 1.6064-0.28348 0.85045-1.8899 2.5986-1.3702 1.0394-2.0789 0.18899-1.5119 0.0472-1.8899 0.6615-1.6536-0.42522-0.8032-0.75595 0.42523-2.5041-0.14174-0.42523-0.8977-1.1812-0.0472-1.5592-0.23628-0.99218-0.61421-0.8977-1.5592-1.8899-0.11298-3.7731-0.66817-1.2027 0.0668-2.6727 0.26728-2.5391 0.66818-1.47-0.40091-2.2718-0.53454-2.1382-2.4722-1.8041-0.66817-1.6704 0.46772-1.9377 0.4009-1.6704-1.1359-0.20045h-2.4722l-0.33408-0.53454h-2.205l-1.6704 1.0691-1.7372-0.53454-2.1382-0.0668-1.3364 0.33407-1.47-0.53454-2.6059-2.4054-0.80181-1.9377-2.2718-1.0023-0.20045-1.2027-0.26727-1.9377 0.80181-0.86863-0.30068-2.3052 0.0334-1.6704 0.86864-1.4032 0.8018-1.637 0.66818-1.3029 0.86862-0.66817 0.80181-2.205 1.0357-2.5391 0.56795-1.3029 0.96885-1.3698 0.86863-1.9043 0.73499-0.56795 1.7707 0.70159 0.70158-0.16705 1.4366-0.93544 1.0357-0.23386 1.8375-0.26727h1.7373l1.3698-0.10023 2.1382 0.20045-0.10023 1.4032 1.3698 1.8375 1.7707 0.0668 1.6036 0.93546 1.8375 0.70158 1.1693 0.0334 0.20045-1.2027 0.50113-0.23386 1.3029 1.4032 1.3364 0.80181 1.2027 0.50113 0.80181 0.30068 0.33409 1.0357 0.60135-1.1025 1.4032 0.0668z" style="fill:#e6aa00;stroke-width:.26458px;stroke:#000" inkscape:connector-curvature="0"/>
  <path d="m216.08 203.57-0.36617-0.12993-0.0945-1.0867 0.5906-0.23624 0.0354-0.77957-1.3819-0.47247-0.73233-0.0118 0.16537 0.7205 0.34254 1.2757-0.15356 0.55516 0.62603 0.74414-0.36617 0.64964-0.8032 0.41341-0.38978-0.61421-0.51972 0.11812-0.33073 0.76777-0.76777 0.34254-0.83863 0.34254 0.0236 0.74414 0.46068 0.75595-0.0354 0.46066-0.88591 0.2008-0.86226-1.3938-1.0158 0.0118 0.0118 1.0631 1e-5 0.89769-0.95675-0.79138-0.4961-0.47247 0.15355-1.0276-0.28348-0.66145-0.86226-1.3229 0.12993-0.76777 0.6969 0.15356 1.6773 0.99219 0.5079 0.5079 1.5237-0.62602 1.0394-1.1812 0.21261-0.89769-0.27167-1.0985-0.4016-0.67327-1.0749-0.50791-1.2402-0.67327-1.1103-1.4292-1.1457 0.11811-0.79139-0.11811-0.2953-0.92132-0.85044-0.24805-1.1812-0.36616-0.42522-0.83864-2.0552 0.12993-1.6536 0.0945-1.2993 0.28348-1.4883 0.33073-1.0158 0.99219-1.0158 1.0867-0.59059 0.96856-1.0394 1.9844-0.96857 1.2284-0.7087 1.3938-0.8032 1.7481-0.77958 0.44884-0.66145 2.4096-1.2757 0.92132-0.94495 1.0158-1.1812 1.252-0.87407 1.6064-10.866-5.2437 0.26727-1.7707-1.4032-1.4366-1.0691-0.83521-1.2695 0.70158-1.6036-0.20045-0.7684 0.96885-1.1359 0.53454-1.0023-0.23386 1.0023 2.3052 0.0334 0.70158 1.6036 0.4009 1.6036 0.50113 1.7373-0.33408 1.2027-0.7684 0.73499-0.53454 11.025 5.2786 0.56795 2.9066 0.96885 1.8709 2.205 0.0334 1.4032-1.47 0.70158-0.70158 0.83522 2.8063 0.20045 1.1359 0.56795 1.3029 0.96885 0.33409 0.43431-2.5391 0.56795-3.274-0.46772-1.3698 0.23386-1.6704 0.83521-1.9377 1.6036-2.2384 0.63477-1.7038 0.20045-1.8375 1.1359-0.73499 1.5702 0.53454 0.33409 1.1359-0.50113 1.8041-0.50113 0.43431-1.2361 1.1025-0.86863 1.1693-0.36749 2.2384-0.20046 2.0713 1.0023 2.1716 0.93545 0.20045 1.5702-0.50113c0.0668-0.0111 0.13363-0.0223 0.20045-0.0334l1.1693-0.53455 1.47 0.26727 0.46772 0.43432-1.4032 1.0357-1.1025 0.13363-0.86863-0.20045-0.93544 0.63476 0.53453 1.2361-0.10022 1.1693-0.96885 0.23386-0.60136-0.43431-0.20045 1.4032-0.50113 1.3698-0.63477 0.30068-0.30068 1.5702-1.8041-0.80181-0.86863 1.0357-0.93544 0.36749-1.5034-0.26727-1.9711-0.30068-0.60135-0.60135-0.33409-1.8041 0.63476-1.1359 0.33409-1.3363-2.372 0.4009 0.20046 1.7707 0.23386 1.4032 0.30067 0.86863-0.26726 1.1359-1.3364 0.26727-0.96885 0.93544-1.5034 1.637-1.1359-0.86863-0.70158-0.70158-0.46773-1.2027-0.26726-1.1359-0.3675-2.3052-0.63477-0.3675 1.0023-0.70158-0.0334-1.2695-0.50114-1.1025-0.90204 0.0334-0.73499 0.0668-0.80181 1.0023 0.73499 1.637-0.80181 0.50113 0.20046 1.3698 0.50113 1.1693-1.2695 0.53454-3.5079-2.4054-0.8018 0.60136-0.66818 2.0379 0.7684 0.90203 0.23386 0.93544 1.3029-0.60135-0.13363-1.3029-0.50113-1.4366-0.13364-1.0691 3.4745 2.372-0.80181 0.83522-0.60136 0.7684 1.47 0.56795-0.56794 0.56795-1.8709 0.70158-0.60136 0.30068 1.8375 0.56795 1.1693-0.23386 0.50113 0.4009 1.3698 0.0334 1.1359-0.4009 1.1693-0.60135 0.86863-0.96885 1.0357 0.8018-1.1025 0.83522-0.70158 0.66817 0.10022 0.96886-0.66817 0.86862-0.96885 0.3675-1.5702 0.60135-1.2027 0.26727-0.23387 0.735 1.4366 0.53453 0.96885 0.33409 0.26727 1.1359-0.0334 1.2695 0.0668 1.5702-1.1025 0.56794-1.7038-0.36749-1.2027-0.16705h-1.4032l-0.10023 2.205-0.10022 1.9377 0.13363 1.7707 0.30068 1.3029-0.10022 0.46772 2.5056 0.46773 1.5034 0.0334 1.5702-0.36749 1.0357-0.86863 0.16704-2.7729 0.50113-0.46772 1.0691-0.10023 0.80181-1.2361 0.53454-0.70158 2.2384-0.33409 1.0691-0.73499 2.1716 2.372-2.0713 1.3029-0.66817 0.50113v0.83521l0.90203 0.50114 0.43432-0.56795-0.26727-0.83522-0.26727-0.26727-0.13364-0.26727 2.0379-1.2361 1.4032 0.93544 1.5368 0.73499 0.70158 0.80181 0.10023 1.2695-0.33409 0.56795-2.2384 0.16704 0.0668 0.3675 1.6036 0.63476 0.40091 0.3675 0.60135-0.43431v-0.86863l0.80181-1.0357 0.13364-0.96885-0.26727-0.83522 1.47 0.66818-1.5368-1.8375-0.90204-1.2027-1.2027-0.50113-0.83522-1.1693-1.2695-0.60136 0.60136-2.1716 0.86863-0.63477 1.1025 1.6036 0.53454-0.80181 0.46772 1.7707 1.4032 0.30068 0.80181 1.1693 0.4009 1.5702 0.53454 1.7373 0.30068 0.93544 0.53454 0.96885 0.0668 1.3364 0.63478 1.7038 1.0023-1.0023 0.56795-1.0023-0.53454-0.80181 0.46772 3.6081 0.7684 0.23386h1.7707l-0.4009-0.33408-1.5034-0.0668-0.66818-0.26729-0.36749-3.0402 0.0334-1.5034 0.30068-0.46773 1.1693-0.20045 1.333-0.0568 0.37418 1.2629 0.49111 2.0112 1.3096 0.8419 1.6604-0.58465 1.1927 0.72497 1.029-0.58466 0.95883 0.0935 0.4268 0.18129-0.7546-5.7705-1.0335-0.28112-1.6619 1.0501-1.4387 0.20671-1.1658-0.12403-0.34726-2.067 0.42994-4.3822 1.3725-0.99219h1.0418l0.89297 1.3394 0.19843 1.0253 0.39688 0.82682 1.5214-0.82682-0.71107-1.5214 0.52917-0.72761 1.141 0.0827 0.39687-0.29767z" style="fill:#e6aa00;stroke-width:.26458px;stroke:#000" inkscape:connector-curvature="0"/>
 </g>
</svg>
